<svg xmlns="http://www.w3.org/2000/svg" width="512" height="512" viewBox="0 0 512 512">
  <!-- Larger corner radius for maskable shapes -->
  <rect x="0" y="0" width="512" height="512" rx="112" fill="#0b0b0b"/>
  <!-- Inset content ~12.5% to survive circular/squircle masks -->
  <g transform="translate(32,32) scale(0.875)">

    <rect x="80"  y="96" width="64" height="320" rx="32" fill="#ffffff10"/>
    <rect x="176" y="96" width="64" height="320" rx="32" fill="#ffffff10"/>
    <rect x="272" y="96" width="64" height="320" rx="32" fill="#ffffff10"/>
    <rect x="368" y="96" width="64" height="320" rx="32" fill="#ffffff10"/>

    <path d="M80,144 L144,144 L126,416 L98,416 Z" fill="#3B82F6"/>
    <path d="M176,224 L240,224 L222,416 L194,416 Z" fill="#EF4444"/>
    <path d="M272,288 L336,288 L318,416 L290,416 Z" fill="#10B981"/>
    <path d="M368,352 L432,352 L414,416 L386,416 Z" fill="#F59E0B"/>

    <rect x="82"  y="132" width="60" height="24" rx="12" fill="#E5E7EB"/>
    <rect x="178" y="212" width="60" height="24" rx="12" fill="#E5E7EB"/>
    <rect x="274" y="276" width="60" height="24" rx="12" fill="#E5E7EB"/>
    <rect x="370" y="340" width="60" height="24" rx="12" fill="#E5E7EB"/>

  </g>
</svg>
